<svg id="Слой_1" data-name="Слой 1" xmlns="http://www.w3.org/2000/svg" xmlns:xlink="http://www.w3.org/1999/xlink"
  viewBox="0 0 876 876" fill="#a7a37e">
  <defs>
    <clipPath id="clip-path" transform="translate(0 0)">
      <rect width="876" height="876" />
    </clipPath>
  </defs>
  <title></title>
  <g clip-path="url(#clip-path)">
    <path
      d="M438,0C196.1,0,0,196.1,0,438S196.1,876,438,876,876,679.9,876,438,679.9,0,438,0M634.17,534.57a24,24,0,0,1-33.94,0L438,372.34,275.77,534.57a24,24,0,1,1-33.94-33.94L421,321.43a24,24,0,0,1,33.94,0l179.2,179.2a24,24,0,0,1,0,33.94"
      transform="translate(0 0)" />
  </g>
</svg>